#define 7ca21e676f8a4e76bcc103e041afa95eDoQ0qWnSFX4RF2Eh_width 128
#define 7ca21e676f8a4e76bcc103e041afa95eDoQ0qWnSFX4RF2Eh_height 128
static char 7ca21e676f8a4e76bcc103e041afa95eDoQ0qWnSFX4RF2Eh_bits[] = {
  0xFE, 0xFF, 0xFF, 0xFF, 0x07, 0x00, 0x00, 0x00, 0x00, 0x00, 0x00, 0x00, 
  0x00, 0x00, 0x00, 0x00, 0xFF, 0xFF, 0xFF, 0xFF, 0x0F, 0x00, 0x00, 0x00, 
  0x00, 0x00, 0x00, 0x00, 0x00, 0x00, 0x00, 0x00, 0xFF, 0xFF, 0xFF, 0xFF, 
  0x0F, 0x00, 0x00, 0x00, 0x00, 0x00, 0x00, 0x00, 0x00, 0x00, 0x00, 0x00, 
  0xFF, 0xFF, 0xFF, 0xFF, 0x0F, 0x00, 0x00, 0x00, 0x00, 0x00, 0x00, 0x00, 
  0x00, 0x00, 0x00, 0x00, 0xFF, 0xFF, 0xFF, 0xFF, 0x0F, 0x00, 0x00, 0x00, 
  0x00, 0x00, 0x00, 0x00, 0x00, 0x00, 0x00, 0x00, 0xBF, 0xD6, 0xAA, 0xDD, 
  0x0F, 0x00, 0x00, 0x00, 0x00, 0x00, 0x00, 0x00, 0x00, 0x00, 0x00, 0x00, 
  0x1F, 0x00, 0x00, 0x80, 0x0F, 0x00, 0x00, 0x00, 0x00, 0x00, 0x00, 0x00, 
  0x00, 0x00, 0x00, 0x00, 0xBF, 0x8A, 0x99, 0xC8, 0x0F, 0x00, 0x00, 0x00, 
  0x00, 0x00, 0x00, 0x00, 0x00, 0x00, 0x00, 0x00, 0x3F, 0x25, 0x50, 0xC1, 
  0x0F, 0x00, 0x00, 0x00, 0x00, 0x00, 0x00, 0x00, 0x00, 0x00, 0x00, 0x00, 
  0x1F, 0x00, 0x04, 0xD4, 0x0F, 0x00, 0x00, 0x00, 0x00, 0x00, 0x00, 0x00, 
  0x00, 0x00, 0x00, 0x00, 0x3F, 0x24, 0x49, 0x85, 0x0F, 0x00, 0x00, 0x00, 
  0x00, 0x00, 0x00, 0x00, 0x00, 0x00, 0x00, 0x00, 0x5F, 0x42, 0x10, 0xC0, 
  0x1F, 0x00, 0x00, 0x00, 0x00, 0x00, 0x00, 0x00, 0x00, 0x00, 0x00, 0x00, 
  0x7F, 0x86, 0x05, 0xD0, 0x0F, 0x00, 0x00, 0x00, 0x00, 0x00, 0x00, 0x00, 
  0x00, 0x00, 0x00, 0x00, 0x1F, 0x20, 0x90, 0xCA, 0x1F, 0x00, 0x00, 0x00, 
  0x00, 0x00, 0x00, 0x00, 0x00, 0x00, 0x00, 0x00, 0x1F, 0x00, 0x86, 0x82, 
  0x1F, 0x00, 0x00, 0x00, 0x00, 0x00, 0x00, 0x00, 0x00, 0x00, 0x00, 0x00, 
  0xBF, 0xA5, 0x10, 0xC8, 0x1F, 0x00, 0x00, 0x00, 0x00, 0x00, 0x00, 0x00, 
  0x00, 0x00, 0x00, 0x00, 0x9F, 0x00, 0x08, 0xC6, 0x1F, 0x00, 0x00, 0x00, 
  0x00, 0x00, 0x00, 0x00, 0x00, 0x00, 0x00, 0x00, 0x3F, 0x52, 0x61, 0xA0, 
  0x1F, 0x00, 0x00, 0x00, 0x00, 0x00, 0x00, 0x00, 0x00, 0x00, 0x00, 0x00, 
  0x3F, 0x49, 0x09, 0xC0, 0x1F, 0x00, 0x00, 0x00, 0x00, 0x00, 0x00, 0x00, 
  0x00, 0x00, 0x00, 0x00, 0x9F, 0x10, 0xA0, 0xC5, 0x3F, 0x00, 0x00, 0x00, 
  0x00, 0x00, 0x00, 0x00, 0x00, 0x00, 0x00, 0x00, 0x3F, 0x15, 0x08, 0xC2, 
  0x3F, 0x00, 0x00, 0x00, 0x00, 0x00, 0x00, 0x00, 0x00, 0x00, 0x00, 0x00, 
  0x3F, 0x80, 0x12, 0xD8, 0x3F, 0x00, 0x00, 0x00, 0x00, 0x00, 0x00, 0x00, 
  0x00, 0x00, 0x00, 0x00, 0x9F, 0x9A, 0xA0, 0x82, 0x3F, 0x00, 0x00, 0x00, 
  0x00, 0x00, 0x00, 0x00, 0x00, 0x00, 0x00, 0x00, 0x3F, 0x00, 0x0A, 0xC8, 
  0x3F, 0x00, 0x00, 0x00, 0x00, 0x00, 0x00, 0x00, 0x00, 0x00, 0x00, 0x00, 
  0x9F, 0x14, 0x00, 0xC6, 0x7F, 0x00, 0x00, 0x00, 0x00, 0x00, 0x00, 0x00, 
  0x00, 0x00, 0x00, 0x00, 0x3F, 0x42, 0x52, 0xA0, 0x7F, 0x00, 0x00, 0x00, 
  0x00, 0x00, 0x00, 0x00, 0x00, 0x00, 0x00, 0x00, 0x1F, 0x00, 0x49, 0xE0, 
  0x7F, 0x00, 0x00, 0x00, 0x00, 0x00, 0x00, 0x00, 0x00, 0x00, 0x00, 0x00, 
  0xBF, 0x54, 0x10, 0x89, 0xFF, 0x00, 0x00, 0x00, 0x00, 0x00, 0x00, 0x00, 
  0x00, 0x00, 0x00, 0x00, 0x9F, 0x5A, 0x19, 0xCA, 0xFF, 0x00, 0x00, 0x00, 
  0x00, 0x00, 0x00, 0x00, 0x00, 0x00, 0x00, 0x00, 0x3F, 0x00, 0x80, 0x90, 
  0xFF, 0x00, 0x00, 0x00, 0x00, 0x00, 0x00, 0x00, 0x00, 0x00, 0x00, 0x00, 
  0x1F, 0x06, 0x9A, 0xC2, 0xFF, 0x00, 0x00, 0x00, 0x00, 0x00, 0x00, 0x00, 
  0x00, 0x00, 0x00, 0x00, 0xBF, 0x60, 0x00, 0xC8, 0xFF, 0x01, 0x00, 0x00, 
  0x00, 0x00, 0x00, 0x00, 0x00, 0x00, 0x00, 0x00, 0x3F, 0x81, 0x0A, 0xD5, 
  0xFF, 0x01, 0x00, 0x00, 0x00, 0x00, 0x00, 0x00, 0x00, 0x00, 0x00, 0x00, 
  0x1F, 0x18, 0x90, 0x80, 0xFF, 0x03, 0x00, 0x00, 0x00, 0x00, 0x00, 0x00, 
  0x00, 0x00, 0x00, 0x00, 0x3F, 0x95, 0x46, 0xCA, 0xFF, 0x03, 0x00, 0x00, 
  0x00, 0x00, 0x00, 0x00, 0x00, 0x00, 0x00, 0x00, 0x5F, 0x00, 0x00, 0x90, 
  0xFF, 0x03, 0x00, 0x00, 0x00, 0x00, 0x00, 0x00, 0x00, 0x00, 0x00, 0x00, 
  0x7F, 0x00, 0x21, 0x86, 0xFF, 0x07, 0x00, 0x00, 0x00, 0x00, 0x00, 0x00, 
  0x00, 0x00, 0x00, 0x00, 0x1F, 0xA5, 0x88, 0xD0, 0xEF, 0x07, 0x00, 0x00, 
  0x00, 0x00, 0x00, 0x00, 0x00, 0x00, 0x00, 0x00, 0x1F, 0x08, 0x29, 0xA0, 
  0xEF, 0x07, 0x00, 0x00, 0x00, 0x00, 0x00, 0x00, 0x00, 0x00, 0x00, 0x00, 
  0xBF, 0x90, 0x80, 0xCA, 0xCF, 0x0F, 0x00, 0x00, 0x00, 0x00, 0x00, 0x00, 
  0x00, 0x00, 0x00, 0x00, 0x1F, 0x81, 0x0A, 0xD0, 0xCF, 0x1F, 0x00, 0x00, 
  0x00, 0x00, 0x00, 0x00, 0x00, 0x00, 0x00, 0x00, 0xBF, 0x18, 0x90, 0x85, 
  0x9F, 0x1F, 0x00, 0x00, 0x00, 0x00, 0x00, 0x00, 0x00, 0x00, 0x00, 0x00, 
  0x3F, 0xA5, 0x46, 0x84, 0x8F, 0x1F, 0x00, 0x00, 0x00, 0x00, 0x00, 0x00, 
  0x00, 0x00, 0x00, 0x00, 0x9F, 0x00, 0x00, 0xE1, 0x9F, 0x3F, 0x00, 0x00, 
  0x00, 0x00, 0x00, 0x00, 0x00, 0x00, 0x00, 0x00, 0x3F, 0x00, 0xA1, 0xA2, 
  0x4F, 0x3F, 0x00, 0x00, 0x00, 0x00, 0x00, 0x00, 0x00, 0x00, 0x00, 0x00, 
  0x1F, 0xA5, 0x08, 0xC0, 0x2F, 0x7E, 0x00, 0x00, 0x00, 0x00, 0x00, 0x00, 
  0x00, 0x00, 0x00, 0x00, 0x3F, 0x08, 0x29, 0xD4, 0x0F, 0xFE, 0x00, 0x00, 
  0x00, 0x00, 0x00, 0x00, 0x00, 0x00, 0x00, 0x00, 0xBF, 0x90, 0x80, 0x82, 
  0xAF, 0xFC, 0x00, 0x00, 0x00, 0x00, 0x00, 0x00, 0x00, 0x00, 0x00, 0x00, 
  0x9F, 0x09, 0x81, 0xD4, 0xFF, 0xFF, 0x01, 0x00, 0x00, 0x00, 0x00, 0x00, 
  0x00, 0x00, 0x00, 0x00, 0x3F, 0x10, 0x18, 0x80, 0xFF, 0xFF, 0x01, 0x00, 
  0x00, 0x00, 0x00, 0x00, 0x00, 0x00, 0x00, 0x00, 0x1F, 0xA5, 0xA5, 0xD2, 
  0xFF, 0xFF, 0x0F, 0x00, 0x00, 0x00, 0x00, 0x00, 0x00, 0x00, 0x00, 0x00, 
  0xBF, 0x00, 0x00, 0xC4, 0xFF, 0xFF, 0xFF, 0x00, 0x00, 0x00, 0x00, 0x00, 
  0x00, 0x00, 0x00, 0x00, 0x9F, 0x00, 0x00, 0xDA, 0xFF, 0xFF, 0xFF, 0x0F, 
  0x00, 0x00, 0x00, 0x00, 0x00, 0x00, 0x00, 0x00, 0x3F, 0xA5, 0xA5, 0x80, 
  0xDF, 0xFF, 0xFF, 0x3F, 0x00, 0x00, 0x00, 0x00, 0x00, 0x00, 0x00, 0x00, 
  0x1F, 0x18, 0x08, 0x85, 0x0F, 0xE0, 0xFF, 0xFF, 0x00, 0x00, 0x00, 0x00, 
  0x00, 0x00, 0x00, 0x00, 0xBF, 0x81, 0x90, 0xE0, 0x0F, 0x00, 0xF8, 0xFF, 
  0x03, 0x00, 0x00, 0x00, 0x00, 0x00, 0x00, 0x00, 0x3F, 0x25, 0x25, 0xD5, 
  0x8F, 0x10, 0xA0, 0xFF, 0x1F, 0x00, 0x00, 0x00, 0x00, 0x00, 0x00, 0x00, 
  0x1F, 0x00, 0x00, 0x80, 0x0F, 0x00, 0x08, 0xFE, 0x3F, 0x00, 0x00, 0x00, 
  0x00, 0x00, 0x00, 0x00, 0x3F, 0x24, 0x24, 0xC4, 0x0F, 0x01, 0x40, 0xF0, 
  0xFF, 0x00, 0x00, 0x00, 0x00, 0x00, 0x00, 0x00, 0x5F, 0x42, 0x42, 0x92, 
  0x4F, 0x00, 0x00, 0xC0, 0xFF, 0x03, 0x00, 0x00, 0x00, 0x00, 0x00, 0x00, 
  0x7F, 0x86, 0x42, 0x82, 0x0F, 0x00, 0x00, 0x89, 0xFF, 0x0F, 0x00, 0x00, 
  0x00, 0x00, 0x00, 0x00, 0x1F, 0x20, 0x24, 0xE4, 0x0F, 0x84, 0x10, 0x00, 
  0xFC, 0x1F, 0x00, 0x00, 0x00, 0x00, 0x00, 0x00, 0x1F, 0x00, 0x00, 0xE0, 
  0x0F, 0x00, 0x01, 0x00, 0xF0, 0x3F, 0x00, 0x00, 0x00, 0x00, 0x00, 0x00, 
  0xBF, 0xA5, 0xA5, 0x85, 0x1F, 0x00, 0x00, 0x00, 0xC0, 0xFF, 0x00, 0x00, 
  0x00, 0x00, 0x00, 0x00, 0x1F, 0xA5, 0xA4, 0xE4, 0x0F, 0x20, 0x12, 0x00, 
  0x00, 0xFF, 0x01, 0x00, 0x00, 0x00, 0x00, 0x00, 0xBF, 0x00, 0x01, 0x81, 
  0x6F, 0x00, 0x00, 0x00, 0x20, 0xFE, 0x03, 0x00, 0x00, 0x00, 0x00, 0x00, 
  0x3F, 0x04, 0x04, 0x84, 0xFF, 0x1F, 0x00, 0x21, 0x00, 0xFC, 0x0F, 0x00, 
  0x00, 0x00, 0x00, 0x00, 0x9F, 0x61, 0x61, 0xE1, 0xFF, 0xFF, 0x01, 0x00, 
  0x04, 0xF0, 0x0F, 0x00, 0x00, 0x00, 0x00, 0x00, 0x3F, 0x02, 0x02, 0xC2, 
  0xFF, 0xFF, 0x1F, 0x00, 0x00, 0xE0, 0x1F, 0x00, 0x00, 0x00, 0x00, 0x00, 
  0x1F, 0x64, 0x64, 0x94, 0xFF, 0xFF, 0x7F, 0x80, 0x00, 0x80, 0x7F, 0x00, 
  0x00, 0x00, 0x00, 0x00, 0x3F, 0x00, 0x00, 0xC0, 0xFF, 0xFF, 0xFF, 0x03, 
  0x08, 0x12, 0xFF, 0x00, 0x00, 0x00, 0x00, 0x00, 0xBF, 0xA2, 0xA2, 0xC2, 
  0x4F, 0xFF, 0xFF, 0x0F, 0x80, 0x00, 0xFE, 0x01, 0x00, 0x00, 0x00, 0x00, 
  0x9F, 0x09, 0x81, 0x92, 0x5F, 0xE9, 0xFF, 0x3F, 0x10, 0x00, 0xFC, 0x03, 
  0x00, 0x00, 0x00, 0x00, 0x3F, 0x90, 0x14, 0xC0, 0x6F, 0x96, 0xFE, 0xFF, 
  0x00, 0x08, 0xF8, 0x03, 0x00, 0x00, 0x00, 0x00, 0x1F, 0x25, 0x95, 0xD2, 
  0xAF, 0x29, 0xE9, 0xFF, 0x01, 0x00, 0xF2, 0x0F, 0x00, 0x00, 0x00, 0x00, 
  0xBF, 0x00, 0x00, 0xC4, 0x5F, 0x94, 0xD6, 0xFF, 0x07, 0x40, 0xE0, 0x0F, 
  0x00, 0x00, 0x00, 0x00, 0x9F, 0x00, 0x00, 0xC9, 0x4F, 0x2A, 0x2A, 0xFE, 
  0x0F, 0x02, 0xC0, 0x1F, 0x00, 0x00, 0x00, 0x00, 0x3F, 0xA9, 0xA4, 0xC0, 
  0x9F, 0xD6, 0x94, 0xFD, 0x3F, 0x00, 0x82, 0x3F, 0x00, 0x00, 0x00, 0x00, 
  0x1F, 0x28, 0x09, 0x85, 0x4F, 0x65, 0x59, 0xF5, 0x7F, 0x00, 0x80, 0x7F, 
  0x00, 0x00, 0x00, 0x00, 0xBF, 0x81, 0x50, 0xE0, 0xBF, 0x8A, 0xA6, 0xCA, 
  0xFF, 0x80, 0x00, 0xFE, 0x00, 0x00, 0x00, 0x00, 0x3F, 0x81, 0x0A, 0xC5, 
  0xAF, 0xAA, 0x14, 0x25, 0xFF, 0x01, 0x00, 0xFE, 0x00, 0x00, 0x00, 0x00, 
  0x1F, 0x18, 0x90, 0xC0, 0x5F, 0x58, 0x69, 0x5A, 0xFE, 0x47, 0x08, 0xF8, 
  0x01, 0x00, 0x00, 0x00, 0x3F, 0x95, 0x46, 0xAA, 0x5F, 0x15, 0xAA, 0x66, 
  0xFD, 0x07, 0x00, 0xF8, 0x03, 0x00, 0x00, 0x00, 0x5F, 0x00, 0x00, 0xC0, 
  0xAF, 0xAA, 0x55, 0x95, 0xF2, 0x0F, 0x40, 0xF8, 0x03, 0x00, 0x00, 0x00, 
  0x7F, 0x00, 0x21, 0xC6, 0x1F, 0x95, 0x55, 0x66, 0xE5, 0x1F, 0x02, 0xE0, 
  0x07, 0x00, 0x00, 0x00, 0x1F, 0xA5, 0x88, 0xD0, 0xFF, 0x62, 0xAA, 0x99, 
  0xD2, 0x3F, 0x00, 0xE0, 0x0F, 0x00, 0x00, 0x00, 0x1F, 0x08, 0x28, 0xA0, 
  0xFF, 0x9F, 0x69, 0x24, 0xA9, 0x7F, 0x00, 0xC0, 0x0F, 0x00, 0x00, 0x00, 
  0xBF, 0x90, 0x81, 0xC9, 0xFF, 0x7F, 0x14, 0x9A, 0x56, 0xFF, 0x80, 0xC2, 
  0x1F, 0x00, 0x00, 0x00, 0x1F, 0x81, 0x0A, 0xD0, 0xFF, 0xFF, 0x93, 0xA6, 
  0xDA, 0xFE, 0x01, 0x81, 0x3F, 0x00, 0x00, 0x00, 0xBF, 0x18, 0x90, 0x85, 
  0xFF, 0xFF, 0x5F, 0x59, 0x25, 0xFD, 0x01, 0x80, 0x7F, 0x01, 0x00, 0x00, 
  0x3F, 0xA5, 0x46, 0x84, 0xFF, 0xFF, 0xBF, 0x86, 0x99, 0xF9, 0x83, 0x00, 
  0xFF, 0x0F, 0x00, 0x00, 0x9F, 0x00, 0x00, 0xE1, 0x9F, 0xFF, 0x7F, 0xA9, 
  0x42, 0xFA, 0x07, 0x01, 0xFE, 0xFF, 0x0F, 0x00, 0x3F, 0x00, 0x21, 0xD2, 
  0x0F, 0xF8, 0xFF, 0x54, 0x91, 0xF6, 0x0F, 0x84, 0xFE, 0xFF, 0xFF, 0x7F, 
  0x1F, 0xA5, 0x88, 0x80, 0x5F, 0xC2, 0xFF, 0xAB, 0x66, 0xE9, 0x0F, 0x00, 
  0xFC, 0xFF, 0xFF, 0x7F, 0x3F, 0x08, 0x28, 0xC4, 0x8F, 0x02, 0xFF, 0x8F, 
  0x9B, 0xE2, 0x1F, 0x00, 0xFC, 0xFF, 0xFF, 0xFF, 0xBF, 0x90, 0x81, 0x92, 
  0x1F, 0x24, 0xFC, 0x5F, 0x64, 0x95, 0x1F, 0x00, 0xF8, 0xFD, 0xFF, 0xFF, 
  0x9F, 0x09, 0x25, 0xC1, 0x2F, 0x00, 0xFA, 0xBF, 0xFA, 0x9F, 0x3F, 0xC0, 
  0xFF, 0x81, 0xFE, 0xFF, 0x3F, 0x10, 0x00, 0xD8, 0x4F, 0x5A, 0xC0, 0x7F, 
  0xFF, 0xFF, 0x3F, 0xF0, 0xFF, 0x6B, 0x80, 0xFE, 0x1F, 0xA5, 0x24, 0x85, 
  0x0F, 0x81, 0x80, 0xFF, 0xFF, 0xFF, 0x7F, 0xFE, 0xFF, 0x0F, 0x2A, 0xFA, 
  0xBF, 0x00, 0x42, 0xC0, 0x5F, 0x18, 0x5A, 0xFF, 0xFF, 0xFF, 0xFF, 0xFE, 
  0xFF, 0x5F, 0x40, 0xFC, 0x9F, 0x00, 0x82, 0xD0, 0x5F, 0x08, 0x4A, 0xFE, 
  0xFF, 0xFF, 0xFF, 0xFF, 0xFF, 0x3F, 0x42, 0xFD, 0x3F, 0xA5, 0x24, 0xCA, 
  0x0F, 0x81, 0x00, 0xFC, 0x5F, 0xFE, 0xFF, 0xFF, 0xF1, 0x7F, 0x24, 0xF8, 
  0x1F, 0x18, 0x00, 0x82, 0x4F, 0x5A, 0x42, 0xF9, 0x07, 0xE0, 0xFF, 0x3F, 
  0x00, 0xFF, 0x00, 0xF8, 0xBF, 0x81, 0xA5, 0xC8, 0x2F, 0x00, 0x28, 0xFC, 
  0x01, 0xC0, 0xFF, 0x0F, 0x00, 0xFE, 0xA5, 0xFE, 0x3F, 0x25, 0x40, 0xC6, 
  0x2F, 0x50, 0x00, 0xFE, 0x01, 0x00, 0xFF, 0x07, 0x00, 0xFC, 0x09, 0xF8, 
  0x1F, 0x00, 0x12, 0xA0, 0x4F, 0x05, 0x5A, 0xFE, 0x00, 0x00, 0xFF, 0x03, 
  0x00, 0xF8, 0xA3, 0xFD, 0x3F, 0x24, 0x49, 0xC0, 0x0F, 0x08, 0x81, 0x7E, 
  0x00, 0x00, 0xFE, 0x01, 0x00, 0xF0, 0x13, 0xFA, 0x5F, 0x42, 0x10, 0xC5, 
  0x5F, 0x61, 0x18, 0x3F, 0x00, 0x00, 0xFC, 0x01, 0x00, 0xF0, 0x87, 0xFC, 
  0x7F, 0x86, 0x15, 0xC2, 0xAF, 0x04, 0x08, 0x3F, 0x00, 0x00, 0xFC, 0x00, 
  0x00, 0xE0, 0x27, 0xFD, 0x1F, 0x20, 0x80, 0xD8, 0x0F, 0x50, 0x81, 0x3F, 
  0x00, 0x00, 0xFC, 0x01, 0x00, 0xE0, 0x07, 0xF8, 0x1F, 0x00, 0x8A, 0x82, 
  0x1F, 0x04, 0xF2, 0xFF, 0x00, 0x00, 0xFF, 0x07, 0x00, 0xF8, 0x7F, 0xF8, 
  0xBF, 0xA5, 0x10, 0xC8, 0x8F, 0x92, 0xFC, 0xFF, 0x03, 0xC0, 0xFF, 0x1F, 
  0x00, 0xFF, 0xFF, 0xFD, 0x1F, 0xA5, 0x08, 0xC6, 0x2F, 0x40, 0xFE, 0xFF, 
  0x0F, 0xF0, 0xFF, 0x7F, 0xC0, 0xFF, 0xFF, 0xFF, 0xBF, 0x00, 0x51, 0xA0, 
  0x4F, 0x2A, 0xFF, 0xFF, 0x1F, 0xF8, 0xFF, 0xFF, 0xE0, 0xFF, 0xFF, 0xFF, 
  0x3F, 0x04, 0x01, 0xE0, 0x0F, 0xC1, 0xFF, 0xFB, 0x3F, 0xFC, 0xDF, 0xFF, 
  0xE1, 0x7F, 0xFF, 0xFF, 0x9F, 0x61, 0xA8, 0x89, 0x5F, 0xC8, 0x3F, 0x80, 
  0x7F, 0xFE, 0x01, 0xFE, 0xFB, 0x0F, 0xF0, 0xFF, 0x3F, 0x42, 0x08, 0xCA, 
  0x2F, 0xE8, 0x0F, 0x00, 0xFE, 0x7F, 0x00, 0xF0, 0xFF, 0x03, 0xC0, 0xFF, 
  0x1F, 0x24, 0x92, 0x90, 0x8F, 0xE1, 0x0F, 0x00, 0xFC, 0x3F, 0x00, 0xF0, 
  0xFF, 0x01, 0x80, 0xFF, 0x3F, 0x00, 0x48, 0xC2, 0x1F, 0xF2, 0x03, 0x00, 
  0xF8, 0x1F, 0x00, 0xC0, 0xFF, 0x00, 0x00, 0xFF, 0xBF, 0xA4, 0x02, 0xC8, 
  0x8F, 0xF8, 0x03, 0x00, 0xF0, 0x0F, 0x00, 0xC0, 0x7F, 0x00, 0x00, 0xFE, 
  0x9F, 0x01, 0x99, 0xD2, 0x2F, 0xF8, 0x01, 0x00, 0xF0, 0x0F, 0x00, 0x80, 
  0x7F, 0x00, 0x00, 0xFC, 0x3F, 0x18, 0x00, 0x80, 0x0F, 0xF9, 0x01, 0x00, 
  0xE0, 0x0F, 0x00, 0x80, 0x3F, 0x00, 0x00, 0xFC, 0x7F, 0xA9, 0x55, 0xED, 
  0xBF, 0xFE, 0x00, 0x02, 0xF0, 0x07, 0x02, 0x80, 0x3F, 0x02, 0x00, 0xFC, 
  0xFF, 0xFF, 0xFF, 0xFF, 0xFF, 0xFF, 0xFF, 0xFF, 0xFF, 0xFF, 0xFF, 0xFF, 
  0xFF, 0xFF, 0xFF, 0xFF, 0xFF, 0xFF, 0xFF, 0xFF, 0xFF, 0xFF, 0xFF, 0xFF, 
  0xFF, 0xFF, 0xFF, 0xFF, 0xFF, 0xFF, 0xFF, 0xFF, 0xFF, 0xFF, 0xFF, 0xFF, 
  0xFF, 0xFF, 0xFF, 0xFF, 0xFF, 0xFF, 0xFF, 0xFF, 0xFF, 0xFF, 0xFF, 0xFF, 
  0xFF, 0xFF, 0xFF, 0xFF, 0xFF, 0xFF, 0xFF, 0xFF, 0xFF, 0xFF, 0xFF, 0xFF, 
  0xFF, 0xFF, 0xFF, 0xFF, 0xFE, 0xFF, 0xFF, 0xFF, 0xFF, 0xFF, 0xFF, 0xFF, 
  0xFF, 0xFF, 0xFF, 0xFF, 0xFF, 0xFF, 0xFF, 0x7F, };
